HIERARCHY
ROOT Character1_Hips
{
	OFFSET 0.000000 86.858185 1.182688
	CHANNELS 6 Xposition Yposition Zposition Xrotation Yrotation Zrotation
	JOINT Character1_LeftUpLeg
	{
		OFFSET 7.276832 -6.057800 0.207883
		CHANNELS 6 Xposition Yposition Zposition Xrotation Yrotation Zrotation
		JOINT Character1_LeftLeg
		{
			OFFSET -1.823140 -35.110466 -1.568847
			CHANNELS 6 Xposition Yposition Zposition Xrotation Yrotation Zrotation
			JOINT Character1_LeftFoot
			{
				OFFSET -1.031196 -37.817070 -1.726818
				CHANNELS 6 Xposition Yposition Zposition Xrotation Yrotation Zrotation
				JOINT Character1_LeftToeBase
				{
					OFFSET 0.202457 -5.287532 8.122427
					CHANNELS 6 Xposition Yposition Zposition Xrotation Yrotation Zrotation
					End Site
					{
						OFFSET 0.009223 0.000047 9.693953
					}
				}
			}
		}
	}
	JOINT Character1_RightUpLeg
	{
		OFFSET -7.276832 -6.057770 0.207879
		CHANNELS 6 Xposition Yposition Zposition Xrotation Yrotation Zrotation
		JOINT Character1_RightLeg
		{
			OFFSET 1.823196 -35.109627 -1.587624
			CHANNELS 6 Xposition Yposition Zposition Xrotation Yrotation Zrotation
			JOINT Character1_RightFoot
			{
				OFFSET 1.031267 -37.817833 -1.710079
				CHANNELS 6 Xposition Yposition Zposition Xrotation Yrotation Zrotation
				JOINT Character1_RightToeBase
				{
					OFFSET -0.202449 -5.287759 8.122276
					CHANNELS 6 Xposition Yposition Zposition Xrotation Yrotation Zrotation
					End Site
					{
						OFFSET 0.001154 -0.000006 9.693956
					}
				}
			}
		}
	}
	JOINT Character1_Spine
	{
		OFFSET -0.000001 2.271347 0.818150
		CHANNELS 6 Xposition Yposition Zposition Xrotation Yrotation Zrotation
		JOINT Character1_Spine1
		{
			OFFSET -0.000001 9.085945 0.955446
			CHANNELS 6 Xposition Yposition Zposition Xrotation Yrotation Zrotation
			JOINT Character1_Spine2
			{
				OFFSET -0.000002 8.765564 -0.142866
				CHANNELS 6 Xposition Yposition Zposition Xrotation Yrotation Zrotation
				JOINT Character1_LeftShoulder
				{
					OFFSET 4.211487 11.612236 -3.873799
					CHANNELS 6 Xposition Yposition Zposition Xrotation Yrotation Zrotation
					JOINT Character1_LeftArm
					{
						OFFSET 5.543700 0.000031 -0.000005
						CHANNELS 6 Xposition Yposition Zposition Xrotation Yrotation Zrotation
						JOINT Character1_LeftForeArm
						{
							OFFSET 23.377409 -0.123474 0.033367
							CHANNELS 6 Xposition Yposition Zposition Xrotation Yrotation Zrotation
							JOINT Character1_LeftHand
							{
								OFFSET 16.247719 -0.118858 0.035829
								CHANNELS 6 Xposition Yposition Zposition Xrotation Yrotation Zrotation
								JOINT Character1_LeftHandThumb1
								{
									OFFSET 2.510399 -0.904045 2.091601
									CHANNELS 6 Xposition Yposition Zposition Xrotation Yrotation Zrotation
									JOINT Character1_LeftHandThumb2
									{
										OFFSET 2.570465 -1.130470 1.584520
										CHANNELS 6 Xposition Yposition Zposition Xrotation Yrotation Zrotation
										JOINT Character1_LeftHandThumb3
										{
											OFFSET 1.420841 -0.605858 0.842600
											CHANNELS 6 Xposition Yposition Zposition Xrotation Yrotation Zrotation
											JOINT Character1_LeftHandThumb4
											{
												OFFSET 2.153469 -0.757797 1.312965
												CHANNELS 6 Xposition Yposition Zposition Xrotation Yrotation Zrotation
												End Site
												{
													OFFSET 2.158772 -0.733734 1.317914
												}
											}
										}
									}
								}
								JOINT Character1_LeftHandIndex1
								{
									OFFSET 8.043888 0.989311 2.480770
									CHANNELS 6 Xposition Yposition Zposition Xrotation Yrotation Zrotation
									JOINT Character1_LeftHandIndex2
									{
										OFFSET 2.427021 0.011856 0.268371
										CHANNELS 6 Xposition Yposition Zposition Xrotation Yrotation Zrotation
										JOINT Character1_LeftHandIndex3
										{
											OFFSET 1.609932 0.007866 0.037315
											CHANNELS 6 Xposition Yposition Zposition Xrotation Yrotation Zrotation
											JOINT Character1_LeftHandIndex4
											{
												OFFSET 2.130016 0.049431 0.114431
												CHANNELS 6 Xposition Yposition Zposition Xrotation Yrotation Zrotation
												End Site
												{
													OFFSET 2.119099 0.211617 -0.131005
												}
											}
										}
									}
								}
								JOINT Character1_LeftHandMiddle1
								{
									OFFSET 8.038177 1.007423 0.439338
									CHANNELS 6 Xposition Yposition Zposition Xrotation Yrotation Zrotation
									JOINT Character1_LeftHandMiddle2
									{
										OFFSET 2.527046 -0.234444 -0.080977
										CHANNELS 6 Xposition Yposition Zposition Xrotation Yrotation Zrotation
										JOINT Character1_LeftHandMiddle3
										{
											OFFSET 1.931313 -0.179352 -0.117768
											CHANNELS 6 Xposition Yposition Zposition Xrotation Yrotation Zrotation
											JOINT Character1_LeftHandMiddle4
											{
												OFFSET 2.196999 0.041229 -0.161456
												CHANNELS 6 Xposition Yposition Zposition Xrotation Yrotation Zrotation
												End Site
												{
													OFFSET 2.197571 -0.071640 -0.141814
												}
											}
										}
									}
								}
								JOINT Character1_LeftHandRing1
								{
									OFFSET 7.662090 0.616508 -1.366725
									CHANNELS 6 Xposition Yposition Zposition Xrotation Yrotation Zrotation
									JOINT Character1_LeftHandRing2
									{
										OFFSET 2.249855 -0.592636 -0.461933
										CHANNELS 6 Xposition Yposition Zposition Xrotation Yrotation Zrotation
										JOINT Character1_LeftHandRing3
										{
											OFFSET 1.521790 -0.400856 -0.248318
											CHANNELS 6 Xposition Yposition Zposition Xrotation Yrotation Zrotation
											JOINT Character1_LeftHandRing4
											{
												OFFSET 2.446365 -0.396080 -0.528466
												CHANNELS 6 Xposition Yposition Zposition Xrotation Yrotation Zrotation
												End Site
												{
													OFFSET 2.437840 -0.527443 -0.446790
												}
											}
										}
									}
								}
								JOINT Character1_LeftHandPinky1
								{
									OFFSET 6.585136 -0.139000 -2.766160
									CHANNELS 6 Xposition Yposition Zposition Xrotation Yrotation Zrotation
									JOINT Character1_LeftHandPinky2
									{
										OFFSET 1.631428 -0.600632 -0.502815
										CHANNELS 6 Xposition Yposition Zposition Xrotation Yrotation Zrotation
										JOINT Character1_LeftHandPinky3
										{
											OFFSET 1.227242 -0.468956 -0.457904
											CHANNELS 6 Xposition Yposition Zposition Xrotation Yrotation Zrotation
											JOINT Character1_LeftHandPinky4
											{
												OFFSET 1.696033 -0.584229 -0.687828
												CHANNELS 6 Xposition Yposition Zposition Xrotation Yrotation Zrotation
												End Site
												{
													OFFSET 1.705387 -0.567787 -0.678411
												}
											}
										}
									}
								}
							}
						}
					}
				}
				JOINT Character1_RightShoulder
				{
					OFFSET -4.211487 11.612236 -3.873799
					CHANNELS 6 Xposition Yposition Zposition Xrotation Yrotation Zrotation
					JOINT Character1_RightArm
					{
						OFFSET -5.543744 0.000023 -0.000004
						CHANNELS 6 Xposition Yposition Zposition Xrotation Yrotation Zrotation
						JOINT Character1_RightForeArm
						{
							OFFSET -23.377581 -0.123566 0.033386
							CHANNELS 6 Xposition Yposition Zposition Xrotation Yrotation Zrotation
							JOINT Character1_RightHand
							{
								OFFSET -16.247574 -0.118851 0.036247
								CHANNELS 6 Xposition Yposition Zposition Xrotation Yrotation Zrotation
								JOINT Character1_RightHandThumb1
								{
									OFFSET -2.510384 -0.904091 2.091566
									CHANNELS 6 Xposition Yposition Zposition Xrotation Yrotation Zrotation
									JOINT Character1_RightHandThumb2
									{
										OFFSET -2.579426 -1.121681 1.537416
										CHANNELS 6 Xposition Yposition Zposition Xrotation Yrotation Zrotation
										JOINT Character1_RightHandThumb3
										{
											OFFSET -1.429546 -0.616760 0.819528
											CHANNELS 6 Xposition Yposition Zposition Xrotation Yrotation Zrotation
											JOINT Character1_RightHandThumb4
											{
												OFFSET -2.167622 -0.774658 1.279505
												CHANNELS 6 Xposition Yposition Zposition Xrotation Yrotation Zrotation
												End Site
												{
													OFFSET -2.137974 -0.606712 1.413074
												}
											}
										}
									}
								}
								JOINT Character1_RightHandIndex1
								{
									OFFSET -8.043800 0.988876 2.481294
									CHANNELS 6 Xposition Yposition Zposition Xrotation Yrotation Zrotation
									JOINT Character1_RightHandIndex2
									{
										OFFSET -2.426987 0.011948 0.268470
										CHANNELS 6 Xposition Yposition Zposition Xrotation Yrotation Zrotation
										JOINT Character1_RightHandIndex3
										{
											OFFSET -1.609989 0.007927 0.037374
											CHANNELS 6 Xposition Yposition Zposition Xrotation Yrotation Zrotation
											JOINT Character1_RightHandIndex4
											{
												OFFSET -2.129982 0.049034 0.114512
												CHANNELS 6 Xposition Yposition Zposition Xrotation Yrotation Zrotation
												End Site
												{
													OFFSET -2.123772 0.204735 0.006035
												}
											}
										}
									}
								}
								JOINT Character1_RightHandMiddle1
								{
									OFFSET -8.038174 1.006859 0.439860
									CHANNELS 6 Xposition Yposition Zposition Xrotation Yrotation Zrotation
									JOINT Character1_RightHandMiddle2
									{
										OFFSET -2.526997 -0.234062 -0.080875
										CHANNELS 6 Xposition Yposition Zposition Xrotation Yrotation Zrotation
										JOINT Character1_RightHandMiddle3
										{
											OFFSET -1.931465 -0.179070 -0.117694
											CHANNELS 6 Xposition Yposition Zposition Xrotation Yrotation Zrotation
											JOINT Character1_RightHandMiddle4
											{
												OFFSET -2.196987 0.042816 -0.161370
												CHANNELS 6 Xposition Yposition Zposition Xrotation Yrotation Zrotation
												End Site
												{
													OFFSET -2.184029 -0.187660 -0.222307
												}
											}
										}
									}
								}
								JOINT Character1_RightHandRing1
								{
									OFFSET -7.662136 0.615837 -1.366219
									CHANNELS 6 Xposition Yposition Zposition Xrotation Yrotation Zrotation
									JOINT Character1_RightHandRing2
									{
										OFFSET -2.249901 -0.592049 -0.461829
										CHANNELS 6 Xposition Yposition Zposition Xrotation Yrotation Zrotation
										JOINT Character1_RightHandRing3
										{
											OFFSET -1.521889 -0.400475 -0.248259
											CHANNELS 6 Xposition Yposition Zposition Xrotation Yrotation Zrotation
											JOINT Character1_RightHandRing4
											{
												OFFSET -2.446423 -0.395401 -0.528361
												CHANNELS 6 Xposition Yposition Zposition Xrotation Yrotation Zrotation
												End Site
												{
													OFFSET -2.430859 -0.503899 -0.507441
												}
											}
										}
									}
								}
								JOINT Character1_RightHandPinky1
								{
									OFFSET -6.585262 -0.139153 -2.765680
									CHANNELS 6 Xposition Yposition Zposition Xrotation Yrotation Zrotation
									JOINT Character1_RightHandPinky2
									{
										OFFSET -1.631413 -0.601036 -0.502742
										CHANNELS 6 Xposition Yposition Zposition Xrotation Yrotation Zrotation
										JOINT Character1_RightHandPinky3
										{
											OFFSET -1.227207 -0.469040 -0.457860
											CHANNELS 6 Xposition Yposition Zposition Xrotation Yrotation Zrotation
											JOINT Character1_RightHandPinky4
											{
												OFFSET -1.696110 -0.584045 -0.687750
												CHANNELS 6 Xposition Yposition Zposition Xrotation Yrotation Zrotation
												End Site
												{
													OFFSET -1.689350 -0.584435 -0.703875
												}
											}
										}
									}
								}
							}
						}
					}
				}
				JOINT Character1_Neck
				{
					OFFSET -0.000001 15.167763 -4.080687
					CHANNELS 6 Xposition Yposition Zposition Xrotation Yrotation Zrotation
					JOINT Character1_Head
					{
						OFFSET -0.000001 7.825302 -0.202157
						CHANNELS 6 Xposition Yposition Zposition Xrotation Yrotation Zrotation
						End Site
						{
							OFFSET -0.242856 15.320236 -2.107584
						}
					}
				}
				JOINT J_R_Mune_00
				{
					OFFSET -2.925001 2.684891 0.061887
					CHANNELS 6 Xposition Yposition Zposition Xrotation Yrotation Zrotation
					JOINT J_R_Mune_01
					{
						OFFSET -7.794388 2.801010 16.635391
						CHANNELS 6 Xposition Yposition Zposition Xrotation Yrotation Zrotation
						JOINT J_R_Mune_02
						{
							OFFSET 6.838630 -2.377007 -14.605499
							CHANNELS 6 Xposition Yposition Zposition Xrotation Yrotation Zrotation
							End Site
							{
								OFFSET -14.795670 -0.834061 -6.791919
							}
						}
					}
				}
				JOINT J_L_Mune_00
				{
					OFFSET 2.925019 2.684776 0.061883
					CHANNELS 6 Xposition Yposition Zposition Xrotation Yrotation Zrotation
					JOINT J_L_Mune_01
					{
						OFFSET 7.794374 2.801254 16.635433
						CHANNELS 6 Xposition Yposition Zposition Xrotation Yrotation Zrotation
						JOINT J_L_Mune_02
						{
							OFFSET -6.838619 -2.376648 -14.605538
							CHANNELS 3 Xrotation Yrotation Zrotation
							End Site
							{
								OFFSET 14.795649 -0.834076 -6.791907
							}
						}
					}
				}
			}
		}
	}
}
MOTION
Frames: 3
Frame Time: 0.033333
2.979909 86.101974 -1.834292 -13.983489 -11.053982 -5.581283 7.276833 -6.057805 0.207884 14.328581 -11.850419 0.183143 -1.823140 -35.110466 -1.568848 10.650955 25.398899 0.602925 -1.031196 -37.817066 -1.726820 -10.744664 0.677786 -2.746714 0.202456 -5.287532 8.122426 0.000066 0.000118 -0.000877 -7.276831 -6.057773 0.207880 0.339871 15.482519 6.378152 1.823196 -35.109615 -1.587620 19.840919 2.008052 1.134006 1.031268 -37.817829 -1.710080 0.186342 0.066721 -1.434949 -0.202449 -5.287761 8.122277 -5.217294 -0.000204 -0.000471 -0.000001 2.271349 0.818150 6.431564 2.757595 1.938658 -0.000001 9.085949 0.955446 -5.210388 -6.587505 -1.625308 -0.000001 8.765575 -0.142870 -2.950390 -7.400676 -8.834624 4.211490 11.612244 -3.873789 4.192645 -20.734477 11.698681 5.543703 0.000007 -0.000006 18.646418 -63.344800 22.772780 23.377405 -0.123480 0.033359 -21.688572 -13.434996 -4.185176 16.247723 -0.118866 0.035831 91.439560 -0.241066 60.503571 2.510406 -0.904058 2.091598 -2.573631 -1.715341 7.432018 2.570467 -1.130464 1.584517 4.641361 14.920065 2.292941 1.420850 -0.605853 0.842584 5.373594 23.291029 2.709620 2.153467 -0.757810 1.312967 -0.000542 0.001142 -0.006050 8.043886 0.989302 2.480767 -1.237957 -1.924435 4.669686 2.427016 0.011856 0.268372 0.441063 -0.050631 -19.218324 1.609938 0.007871 0.037324 1.535217 0.408172 -26.634341 2.130020 0.049424 0.114426 -0.003258 -0.004277 -0.001057 8.038174 1.007429 0.439331 -1.524346 -3.498777 10.815249 2.527042 -0.234437 -0.080984 -1.319223 0.339883 -23.285681 1.931316 -0.179340 -0.117761 -2.192065 0.978164 -33.174758 2.197001 0.041215 -0.161445 -0.003103 -0.003927 0.001098 7.662091 0.616505 -1.366726 -5.476087 -3.127593 16.832229 2.249864 -0.592646 -0.461925 1.106576 0.683825 -15.442829 1.521787 -0.400868 -0.248316 -8.452735 6.706108 -37.617205 2.446368 -0.396067 -0.528461 -0.003319 -0.001642 0.001264 6.585136 -0.138995 -2.766172 2.526464 -6.684684 6.947893 1.631429 -0.600627 -0.502817 -2.448000 1.129288 -7.718035 1.227231 -0.468950 -0.457890 -8.095278 5.121214 -24.753459 1.696015 -0.584235 -0.687813 -0.000777 -0.000277 -0.000190 -4.211483 11.612232 -3.873792 2.774355 11.598087 -13.552148 -5.543746 0.000024 -0.000008 36.068218 68.149230 -33.553755 -23.377579 -0.123560 0.033370 -12.055092 7.847772 -4.305276 -16.247574 -0.118847 0.036249 59.312734 15.681436 -64.634367 -2.510390 -0.904100 2.091550 -7.054916 -0.039728 -13.731575 -2.579436 -1.121654 1.537410 6.117432 -19.520457 -2.673466 -1.429540 -0.616769 0.819536 7.326520 -30.564916 -3.015239 -2.167614 -0.774683 1.279502 0.009930 0.003720 -0.006324 -8.043807 0.988869 2.481286 0.477774 0.553365 -9.839259 -2.426998 0.011942 0.268438 -0.361152 0.069341 9.342095 -1.609988 0.007928 0.037366 0.331785 0.183703 11.326451 -2.129983 0.049040 0.114532 -0.000953 -0.008498 0.004607 -8.038172 1.006857 0.439851 -3.650957 4.818014 -1.183539 -2.527006 -0.234057 -0.080872 0.527137 -0.041901 9.551870 -1.931460 -0.179055 -0.117703 0.035203 0.388657 16.186107 -2.196992 0.042799 -0.161363 -0.000649 -0.002622 -0.003783 -7.662144 0.615841 -1.366242 4.384126 8.043567 -7.241676 -2.249893 -0.592057 -0.461836 2.431863 0.158254 7.690453 -1.521876 -0.400485 -0.248247 -0.693133 0.319028 25.164956 -2.446429 -0.395412 -0.528358 0.004996 0.001018 0.007392 -6.585266 -0.139157 -2.765696 -1.565373 7.319367 -28.335180 -1.631409 -0.601048 -0.502748 0.204987 0.077801 -0.628363 -1.227206 -0.469035 -0.457865 -2.070303 -2.589706 8.772006 -1.696114 -0.584055 -0.687751 0.004288 0.003758 -0.005290 0.000002 15.167759 -4.080679 15.804156 4.374089 -0.637699 -0.000000 7.825319 -0.202158 10.073822 1.870169 -1.462175 -2.924999 2.684891 0.061893 -0.000002 -0.000000 -0.000001 -7.794385 2.800995 16.635387 -0.000001 -0.000004 -0.000001 6.838635 -2.377022 -14.605501 0.000001 -0.000003 -0.000001 2.925020 2.684792 0.061888 0.000002 0.000002 -0.000002 7.794373 2.801255 16.635426 0.000000 0.000000 0.000002 -0.000000 0.000007 0.000000 
2.974461 86.099739 -1.835079 -14.003447 -11.126796 -5.602944 7.276833 -6.057811 0.207883 14.330529 -11.932673 0.170362 -1.823140 -35.110458 -1.568847 10.687754 25.556712 0.591705 -1.031196 -37.817066 -1.726822 -10.759559 0.681196 -2.764628 0.202457 -5.287532 8.122426 0.000013 0.000174 -0.000829 -7.276831 -6.057780 0.207879 0.361093 15.380186 6.374232 1.823196 -35.109619 -1.587620 19.848122 2.180200 1.108266 1.031267 -37.817829 -1.710081 0.187303 0.067375 -1.452122 -0.202449 -5.287758 8.122275 -5.217258 -0.000187 -0.000477 -0.000001 2.271326 0.818151 6.424667 2.784119 1.947746 -0.000001 9.085941 0.955445 -5.170689 -6.565083 -1.627956 -0.000003 8.765570 -0.142871 -2.941602 -7.442580 -8.882029 4.211486 11.612244 -3.873797 4.192682 -20.734486 11.698689 5.543703 0.000010 -0.000004 18.642339 -63.343953 22.761260 23.377407 -0.123463 0.033359 -21.686897 -13.438881 -4.182455 16.247711 -0.118847 0.035835 91.439533 -0.241098 60.503653 2.510406 -0.904057 2.091593 -2.573700 -1.715347 7.431995 2.570465 -1.130481 1.584518 4.641385 14.920099 2.292969 1.420848 -0.605865 0.842591 5.373577 23.291025 2.709641 2.153463 -0.757798 1.312963 -0.000474 0.001159 -0.006112 8.043885 0.989302 2.480753 -1.237977 -1.924434 4.669682 2.427021 0.011868 0.268372 0.441002 -0.050600 -19.218329 1.609945 0.007854 0.037305 1.535272 0.408153 -26.634299 2.130022 0.049428 0.114439 -0.003138 -0.004220 -0.001119 8.038172 1.007447 0.439335 -1.524372 -3.498750 10.815248 2.527049 -0.234444 -0.080971 -1.319324 0.339914 -23.285699 1.931312 -0.179332 -0.117759 -2.192029 0.978180 -33.174738 2.196997 0.041235 -0.161458 -0.002956 -0.003931 0.001089 7.662086 0.616508 -1.366736 -5.476116 -3.127574 16.832219 2.249867 -0.592636 -0.461930 1.106689 0.683838 -15.442819 1.521774 -0.400854 -0.248318 -8.452688 6.706065 -37.617181 2.446365 -0.396076 -0.528455 -0.003323 -0.001655 0.001261 6.585136 -0.138983 -2.766156 2.526354 -6.684655 6.947867 1.631424 -0.600642 -0.502827 -2.447972 1.129247 -7.717985 1.227251 -0.468966 -0.457909 -8.095330 5.121249 -24.753516 1.696037 -0.584234 -0.687822 -0.000759 -0.000228 -0.000244 -4.211487 11.612241 -3.873798 2.774406 11.598057 -13.552154 -5.543750 0.000020 -0.000008 36.070700 68.152905 -33.555644 -23.377577 -0.123565 0.033397 -12.053006 7.845236 -4.303364 -16.247593 -0.118865 0.036239 59.312803 15.681462 -64.634442 -2.510382 -0.904113 2.091558 -7.054987 -0.039744 -13.731534 -2.579440 -1.121680 1.537408 6.117483 -19.520489 -2.673492 -1.429538 -0.616774 0.819543 7.326489 -30.564922 -3.015199 -2.167612 -0.774646 1.279511 0.009933 0.003730 -0.006332 -8.043804 0.988870 2.481293 0.477801 0.553355 -9.839226 -2.426992 0.011953 0.268486 -0.361189 0.069337 9.342091 -1.609995 0.007935 0.037373 0.331800 0.183727 11.326423 -2.129977 0.049038 0.114519 -0.000966 -0.008511 0.004644 -8.038173 1.006855 0.439860 -3.650896 4.817973 -1.183528 -2.526992 -0.234051 -0.080902 0.527164 -0.041913 9.551810 -1.931471 -0.179065 -0.117705 0.035211 0.388637 16.186128 -2.196988 0.042810 -0.161350 -0.000652 -0.002612 -0.003764 -7.662133 0.615827 -1.366220 4.384056 8.043579 -7.241622 -2.249889 -0.592046 -0.461838 2.431770 0.158279 7.690445 -1.521878 -0.400484 -0.248245 -0.693055 0.319066 25.164942 -2.446422 -0.395408 -0.528380 0.004975 0.001044 0.007385 -6.585264 -0.139155 -2.765668 -1.565349 7.319388 -28.335144 -1.631419 -0.601030 -0.502744 0.204961 0.077832 -0.628356 -1.227215 -0.469041 -0.457848 -2.070262 -2.589692 8.771990 -1.696114 -0.584047 -0.687745 0.004182 0.003711 -0.005291 -0.000002 15.167759 -4.080686 15.784431 4.377047 -0.603731 0.000000 7.825314 -0.202157 10.073615 1.870129 -1.462233 -2.925002 2.684898 0.061889 -0.000001 0.000000 0.000002 -7.794383 2.801018 16.635380 0.000001 -0.000003 0.000000 6.838632 -2.376991 -14.605499 0.000001 0.000000 -0.000001 2.925018 2.684792 0.061883 0.000001 -0.000001 0.000001 7.794375 2.801247 16.635431 0.000000 -0.000000 -0.000000 -0.000001 0.000006 0.000000 
2.974342 86.098000 -1.835598 -14.015972 -11.175115 -5.614578 7.276833 -6.057807 0.207886 14.328263 -12.013510 0.155336 -1.823141 -35.110474 -1.568847 10.714996 25.685796 0.579288 -1.031196 -37.817074 -1.726820 -10.769362 0.684215 -2.772784 0.202458 -5.287531 8.122426 0.000017 0.000188 -0.000837 -7.276830 -6.057768 0.207882 0.378611 15.274852 6.363267 1.823196 -35.109615 -1.587620 19.857477 2.330251 1.079976 1.031267 -37.817837 -1.710080 0.184690 0.068961 -1.460738 -0.202449 -5.287760 8.122276 -5.217276 -0.000185 -0.000476 -0.000001 2.271342 0.818152 6.419037 2.801105 1.947803 -0.000001 9.085956 0.955446 -5.134436 -6.543634 -1.624609 -0.000002 8.765557 -0.142865 -2.930237 -7.469672 -8.912605 4.211483 11.612236 -3.873796 4.192747 -20.734463 11.698696 5.543701 0.000013 -0.000004 18.643404 -63.348604 22.762123 23.377407 -0.123473 0.033362 -21.686503 -13.434594 -4.185376 16.247723 -0.118868 0.035826 91.439485 -0.241156 60.503632 2.510398 -0.904047 2.091609 -2.573692 -1.715354 7.431983 2.570460 -1.130466 1.584523 4.641305 14.920074 2.292966 1.420848 -0.605860 0.842588 5.373684 23.290964 2.709657 2.153483 -0.757812 1.312949 -0.000497 0.001186 -0.006095 8.043881 0.989298 2.480773 -1.238004 -1.924450 4.669677 2.427025 0.011855 0.268354 0.440974 -0.050604 -19.218341 1.609942 0.007864 0.037326 1.535244 0.408183 -26.634304 2.130023 0.049434 0.114431 -0.003111 -0.004299 -0.001055 8.038166 1.007425 0.439344 -1.524310 -3.498771 10.815239 2.527049 -0.234438 -0.080983 -1.319311 0.339912 -23.285669 1.931317 -0.179332 -0.117761 -2.192017 0.978130 -33.174673 2.197012 0.041222 -0.161433 -0.003022 -0.003841 0.001074 7.662090 0.616500 -1.366709 -5.476154 -3.127578 16.832207 2.249855 -0.592642 -0.461932 1.106563 0.683843 -15.442843 1.521792 -0.400856 -0.248305 -8.452721 6.706085 -37.617243 2.446372 -0.396077 -0.528468 -0.003284 -0.001654 0.001273 6.585136 -0.138996 -2.766136 2.526301 -6.684630 6.947841 1.631428 -0.600635 -0.502814 -2.447925 1.129218 -7.717985 1.227243 -0.468960 -0.457910 -8.095398 5.121250 -24.753487 1.696033 -0.584238 -0.687827 -0.000752 -0.000183 -0.000222 -4.211486 11.612225 -3.873802 2.774419 11.598095 -13.552142 -5.543750 0.000025 -0.000010 36.067948 68.153636 -33.547973 -23.377581 -0.123548 0.033395 -12.050304 7.847277 -4.304949 -16.247583 -0.118859 0.036249 59.312734 15.681539 -64.634449 -2.510383 -0.904097 2.091566 -7.055001 -0.039670 -13.731490 -2.579422 -1.121686 1.537420 6.117508 -19.520460 -2.673537 -1.429543 -0.616773 0.819535 7.326460 -30.564912 -3.015292 -2.167622 -0.774660 1.279507 0.009943 0.003709 -0.006338 -8.043808 0.988876 2.481308 0.477771 0.553355 -9.839182 -2.426998 0.011945 0.268488 -0.361149 0.069386 9.342033 -1.609986 0.007924 0.037366 0.331818 0.183695 11.326443 -2.129977 0.049048 0.114499 -0.001016 -0.008500 0.004668 -8.038175 1.006860 0.439862 -3.650909 4.817998 -1.183475 -2.527000 -0.234070 -0.080864 0.527174 -0.041865 9.551816 -1.931464 -0.179080 -0.117687 0.035241 0.388633 16.186146 -2.196997 0.042810 -0.161347 -0.000675 -0.002657 -0.003762 -7.662129 0.615843 -1.366208 4.384102 8.043556 -7.241567 -2.249887 -0.592042 -0.461829 2.431907 0.158271 7.690402 -1.521875 -0.400469 -0.248266 -0.693164 0.319071 25.165004 -2.446430 -0.395376 -0.528371 0.005067 0.001006 0.007317 -6.585265 -0.139160 -2.765685 -1.565359 7.319403 -28.335125 -1.631416 -0.601033 -0.502718 0.204961 0.077764 -0.628332 -1.227207 -0.469045 -0.457845 -2.070255 -2.589649 8.771984 -1.696114 -0.584048 -0.687759 0.004248 0.003747 -0.005310 -0.000003 15.167757 -4.080686 15.758963 4.367471 -0.555306 0.000000 7.825323 -0.202155 10.073968 1.870141 -1.462359 -2.925005 2.684883 0.061889 0.000001 0.000001 -0.000002 -7.794389 2.801017 16.635389 0.000003 -0.000002 0.000002 6.838630 -2.377007 -14.605496 0.000000 0.000000 -0.000002 2.925016 2.684784 0.061882 0.000002 0.000002 -0.000001 7.794374 2.801254 16.635433 0.000001 0.000003 0.000001 0.000002 0.000002 -0.000001 
